# xmcd CD database file
#
# Track frame offsets:
#	150
#	11886
#	34236
#	49917
#	62565
#	76976
#	92368
#	105805
#	121795
#	144238
#	164449
#	180946
#	202186
#	220747
#
# Disc length: 3135 seconds
#
# Revision: 1
# Processed by: cddbd v1.5.1PL2 Copyright (c) Steve Scherf et al.
# Submitted via: CDex 1.51
#
DISCID=af0c3d0e
DTITLE=Swing Shift - Jingle Jangle (Volume 2)
DYEAR=1900
DGENRE=Swing
TTITLE0=Jingle Bells
TTITLE1=Sleigh Ride
TTITLE2=Santa Claus Is Coming To Town
TTITLE3=Frosty The Snowman
TTITLE4=I Saw Mommy Kissing Santa Claus
TTITLE5=Jingle Bell Rock
TTITLE6=It's The Most Wonderful Time Of The Year
TTITLE7=O Christmas Tree
TTITLE8=Linus And Lucy
TTITLE9=Have A Holly Jolly Christmas
TTITLE10=Here Comes Santa Claus
TTITLE11=Rudolph The Red-Nosed Reindeer
TTITLE12=A Marshmallow World
TTITLE13=Dig That Crazy Santa Claus
EXTD=
EXTT0=
EXTT1=
EXTT2=
EXTT3=
EXTT4=
EXTT5=
EXTT6=
EXTT7=
EXTT8=
EXTT9=
EXTT10=
EXTT11=
EXTT12=
EXTT13=
PLAYORDER=
